<svg xmlns="http://www.w3.org/2000/svg" width="231.61" height="231.564" viewBox="0 0 231.61 231.564">
  <g id="Group_35" data-name="Group 35" transform="translate(-3074.741 -7465.789)">
    <g id="Group_34" data-name="Group 34" transform="translate(3074.741 7465.789)">
      <path id="Path_79" data-name="Path 79" d="M285.965,0a4.524,4.524,0,0,0,0,9.047A90.828,90.828,0,0,1,376.69,99.772a4.524,4.524,0,0,0,9.047,0A99.886,99.886,0,0,0,285.965,0Zm0,0" transform="translate(-154.127 0)" fill="#afd051"/>
      <path id="Path_80" data-name="Path 80" d="M354,137.241a4.524,4.524,0,0,0,4.523-4.524,72.643,72.643,0,0,0-72.56-72.562,4.524,4.524,0,0,0,0,9.047,63.585,63.585,0,0,1,63.513,63.514A4.524,4.524,0,0,0,354,137.241Zm0,0" transform="translate(-154.127 -32.945)" fill="#afd051"/>
      <path id="Path_81" data-name="Path 81" d="M322.26,165.67a4.524,4.524,0,0,0,9.048,0,45.393,45.393,0,0,0-45.342-45.342,4.523,4.523,0,1,0,0,9.045A36.336,36.336,0,0,1,322.26,165.67Zm0,0" transform="translate(-154.127 -65.898)" fill="#afd051"/>
      <path id="Path_83" data-name="Path 83" d="M176.481,319.2a4.524,4.524,0,1,1-4.524-4.524A4.523,4.523,0,0,1,176.481,319.2Zm0,0" transform="translate(-91.694 -172.329)" fill="#afd051"/>
      <path id="Path_84" data-name="Path 84" d="M123.961,265.578a53.778,53.778,0,0,0,61.668-10.394l9.353-9.353a12.977,12.977,0,0,0,0-18.368l-36.139-36.136a12.971,12.971,0,0,0-18.365,0l-15.356,15.357a8.951,8.951,0,0,1-11.035,1.46,169.7,169.7,0,0,1-15.96-11.565,4.523,4.523,0,1,0-5.727,7,178.408,178.408,0,0,0,16.817,12.185,18.046,18.046,0,0,0,22.3-2.686l15.359-15.359a3.931,3.931,0,0,1,5.566,0l36.141,36.138a3.935,3.935,0,0,1,0,5.572l-9.355,9.356a44.73,44.73,0,0,1-51.29,8.667C65.26,226.718,31.156,177.979,13.584,142.5a44.4,44.4,0,0,1,8.685-51.1l9.15-9.148a3.927,3.927,0,0,1,5.564,0l36.145,36.143a3.93,3.93,0,0,1,0,5.566L57.769,139.329a18.048,18.048,0,0,0-2.686,22.3c2.61,4.084,5.423,8.112,8.363,11.973a4.523,4.523,0,1,0,7.2-5.481c-2.788-3.663-5.46-7.487-7.938-11.362a8.953,8.953,0,0,1,1.46-11.037L79.52,130.372a12.975,12.975,0,0,0,0-18.365L43.382,75.868a12.969,12.969,0,0,0-18.363,0l-9.146,9.146a53.437,53.437,0,0,0-10.4,61.509C23.672,183.252,59,233.722,123.961,265.578Zm0,0" transform="translate(0.001 -39.462)" fill="#afd051"/>
    </g>
  </g>
</svg>
