<svg xmlns="http://www.w3.org/2000/svg" width="240.883" height="139.177" viewBox="0 0 240.883 139.177">
  <g id="Group_36" data-name="Group 36" transform="translate(-3070.217 -8118.549)">
    <g id="Group_33" data-name="Group 33" transform="translate(3070.217 8118.549)">
      <path id="email" d="M224.471,24H58.529A21.475,21.475,0,0,0,37.118,45.412v8.029a5.353,5.353,0,0,0,10.706,0V45.412a13.434,13.434,0,0,1,.535-3.212l59.953,51.388L48.359,144.977a13.433,13.433,0,0,1-.535-3.212v-8.029a5.353,5.353,0,0,0-10.706,0v8.029a21.475,21.475,0,0,0,21.412,21.412H224.471a21.475,21.475,0,0,0,21.412-21.412V45.412A21.475,21.475,0,0,0,224.471,24ZM56.388,34.974a5.218,5.218,0,0,1,2.141-.268H224.471a5.218,5.218,0,0,1,2.141.268L144.98,104.83a5.628,5.628,0,0,1-6.959,0Zm168.083,117.5H58.529a5.218,5.218,0,0,1-2.141-.268l60.221-51.656,14.453,12.579a15.577,15.577,0,0,0,20.876,0l14.453-12.579L226.612,152.2A5.218,5.218,0,0,1,224.471,152.471Zm10.706-10.706a13.434,13.434,0,0,1-.535,3.212L174.688,93.588,234.642,42.2a13.434,13.434,0,0,1,.535,3.212ZM21.059,80.206a5.369,5.369,0,0,1,5.353-5.353H58.529a5.353,5.353,0,1,1,0,10.706H26.412A5.369,5.369,0,0,1,21.059,80.206Zm37.471,32.118H10.353a5.353,5.353,0,0,1,0-10.706H58.529a5.353,5.353,0,0,1,0,10.706Z" transform="translate(-5 -24)" fill="#afd051"/>
    </g>
  </g>
</svg>
