<svg xmlns="http://www.w3.org/2000/svg" width="394.23" height="531.175" viewBox="0 0 394.23 531.175">
  <g id="Group_37" data-name="Group 37" transform="translate(-98.032 -715)">
    <path id="Path_88" data-name="Path 88" d="M259.37,100a93.37,93.37,0,1,0,93.37,93.371A93.477,93.477,0,0,0,259.37,100Zm0,165.992a72.622,72.622,0,1,1,72.621-72.621A72.7,72.7,0,0,1,259.37,265.992Z" transform="translate(35.774 718.743)" fill="#afd051"/>
    <path id="Path_89" data-name="Path 89" d="M404.126,303.073,374.2,345.466a10.374,10.374,0,1,0,16.95,11.967l29.845-42.275A195.459,195.459,0,0,0,460.23,197.116C460.23,88.425,371.805,0,263.115,0S66,88.425,66,197.116a195.465,195.465,0,0,0,39.238,118.043L243.091,510.426H107.5a10.374,10.374,0,0,0,0,20.749H418.732a10.374,10.374,0,1,0,0-20.749H283.139l54.187-76.755a10.374,10.374,0,1,0-16.95-11.967l-57.261,81.108s-141.126-199.9-141.186-199.98a174.887,174.887,0,0,1-35.18-105.716c0-97.249,79.118-176.367,176.366-176.367S439.481,99.867,439.481,197.116A174.887,174.887,0,0,1,404.3,302.832c-.06.08-.118.16-.175.241Z" transform="translate(32.032 715)" fill="#afd051"/>
    <path id="Path_90" data-name="Path 90" d="M404.126,303.073,374.2,345.466a10.374,10.374,0,1,0,16.95,11.967l29.845-42.275A195.459,195.459,0,0,0,460.23,197.116C460.23,88.425,371.805,0,263.115,0S66,88.425,66,197.116a195.465,195.465,0,0,0,39.238,118.043L243.091,510.426H107.5a10.374,10.374,0,0,0,0,20.749H418.732a10.374,10.374,0,1,0,0-20.749H283.139l54.187-76.755a10.374,10.374,0,1,0-16.95-11.967l-57.261,81.108s-141.126-199.9-141.186-199.98a174.887,174.887,0,0,1-35.18-105.716c0-97.249,79.118-176.367,176.366-176.367S439.481,99.867,439.481,197.116A174.887,174.887,0,0,1,404.3,302.832c-.06.08-.118.16-.175.241Z" transform="translate(32.032 715)" fill="#afd051"/>
    <ellipse id="Ellipse_6" data-name="Ellipse 6" cx="6.147" cy="12.294" rx="6.147" ry="12.294" transform="translate(381.203 1091.229)" fill="#afd051"/>
  </g>
</svg>
